<?xml version="1.0" encoding="utf-8"?>
<svg width="329px" height="264px" viewBox="0 0 329 264" version="1.1" xmlns:xlink="http://www.w3.org/1999/xlink" xmlns="http://www.w3.org/2000/svg">
  <defs>
    <linearGradient gradientUnits="objectBoundingBox" x1="0.5" y1="0" x2="0.5" y2="1" id="gradient_1">
      <stop offset="0%" stop-color="#46D2EB" />
      <stop offset="53.932583%" stop-color="#81A8FC" />
      <stop offset="100%" stop-color="#5746EB" />
    </linearGradient>
    <path d="M0 0L329 0L329 264L0 264L0 0Z" id="path_1" />
    <clipPath id="clip_1">
      <use xlink:href="#path_1" clip-rule="evenodd" fill-rule="evenodd" />
    </clipPath>
  </defs>
  <g id="RV" clip-path="url(#clip_1)">
    <g transform="translate(78.028, 79.2)" fill="url(#gradient_1)" stroke="none" id="RV">
      <path d="M77.76 164.304Q79.488 164.592 81.792 167.472Q84.096 170.352 84.096 172.8Q84.096 174.384 81.648 175.248Q80.784 175.536 78.84 176.328Q76.896 177.12 75.312 177.408Q73.728 177.696 71.712 177.696Q68.688 177.696 67.104 176.976C64.416 175.824 60.912 173.136 56.592 168.912Q50.112 162.576 44.064 154.44Q38.016 146.304 35.136 139.248L34.272 139.248Q30.24 139.248 28.368 139.104Q24.048 155.088 21.168 167.04Q20.016 172.08 17.64 174.816Q15.264 177.552 9.936 177.552Q5.472 177.552 3.384 176.04Q1.296 174.528 1.296 170.928Q1.296 169.344 1.728 167.904L19.152 100.656Q11.664 102.816 7.776 106.56Q6.192 104.832 5.256 102.024Q4.32 99.216 4.32 96.48Q4.32 94.464 5.544 93.24Q6.768 92.016 8.928 91.008Q9.648 90.576 14.184 88.416Q18.72 86.256 22.896 85.104Q24.192 82.224 26.856 80.352Q29.52 78.48 33.696 78.48Q36.144 78.48 37.728 79.416Q39.312 80.352 39.888 81.792Q45.216 80.064 52.704 80.064Q61.92 80.064 68.76 83.736Q75.6 87.408 79.2 93.168Q82.8 98.928 82.8 104.832Q82.8 117.936 74.376 125.784Q65.952 133.632 52.704 136.944Q55.728 142.128 60.768 148.608Q65.808 155.088 70.344 159.624Q74.88 164.16 76.32 164.16L77.76 164.304ZM38.304 96.768Q34.128 113.472 31.392 125.712Q33.12 125.856 36.288 125.856Q43.2 125.856 50.112 123.768Q57.024 121.68 61.704 117.504Q66.384 113.328 66.384 107.136Q66.384 101.52 61.776 98.136Q57.168 94.752 49.392 94.752Q45.072 94.752 38.304 96.768ZM112.032 178.704Q106.272 177.408 103.968 175.968Q101.664 174.528 101.016 172.152Q100.368 169.776 100.08 164.16Q99.792 155.664 98.64 137.664Q98.496 134.784 97.632 119.088Q96.768 103.392 96.768 88.992Q96.768 85.536 99.864 83.16Q102.96 80.784 107.712 80.784Q112.032 80.784 114.048 83.16Q116.064 85.536 116.064 90.432L116.208 147.744L116.208 162Q127.728 136.512 142.56 108.504Q157.392 80.496 161.568 80.496Q166.896 80.496 170.208 82.944Q173.52 85.392 173.664 88.704Q172.8 90.576 166.608 101.952L159.84 113.904L154.944 122.976Q140.4 149.616 134.64 159.696Q128.88 169.776 124.992 173.952Q123.264 175.968 119.736 177.336Q116.208 178.704 112.032 178.704Z" />
    </g>
  </g>
</svg>